<?xml version="1.0" encoding="utf-8"?>
<svg version="1.1" id="Layer_1" xmlns="http://www.w3.org/2000/svg" xmlns:xlink="http://www.w3.org/1999/xlink" x="0px" y="0px"
	 viewBox="0 0 16 16" style="enable-background:new 0 0 16 16;" xml:space="preserve">
<style type="text/css">
	.st0{fill:none;}
</style>
<path id="XMLID_2_" d="M10.9,1.2H0.5C0.2,1.2,0,1.4,0,1.7v0C0,2,0.2,2.2,0.5,2.2h10.4c0.3,0,0.5-0.2,0.5-0.5v0
	C11.4,1.4,11.2,1.2,10.9,1.2z"/>
<path id="XMLID_4_" d="M15.5,7.5h-15C0.2,7.5,0,7.7,0,8l0,0c0,0.3,0.2,0.5,0.5,0.5h15C15.8,8.5,16,8.3,16,8v0
	C16,7.7,15.8,7.5,15.5,7.5z"/>
<rect id="XMLID_1_" y="1.2" class="st0" width="16" height="13.6"/>
<path id="XMLID_3_" d="M10.9,13.8H0.5C0.2,13.8,0,14,0,14.3v0c0,0.3,0.2,0.5,0.5,0.5h10.4c0.3,0,0.5-0.2,0.5-0.5v0
	C11.4,14,11.2,13.8,10.9,13.8z"/>
</svg>
